<svg id="visual" viewBox="0 0 900 200" width="900" height="200" xmlns="http://www.w3.org/2000/svg" xmlns:xlink="http://www.w3.org/1999/xlink" version="1.1"><rect x="0" y="0" width="900" height="200" fill="#271810"></rect><path d="M0 95L21.5 92.7C43 90.3 86 85.7 128.8 88C171.7 90.3 214.3 99.7 257.2 105.5C300 111.3 343 113.7 385.8 118.8C428.7 124 471.3 132 514.2 128C557 124 600 108 642.8 100.7C685.7 93.3 728.3 94.7 771.2 89.8C814 85 857 74 878.5 68.5L900 63L900 201L878.5 201C857 201 814 201 771.2 201C728.3 201 685.7 201 642.8 201C600 201 557 201 514.2 201C471.3 201 428.7 201 385.8 201C343 201 300 201 257.2 201C214.3 201 171.7 201 128.8 201C86 201 43 201 21.5 201L0 201Z" fill="#6E8CA3" stroke-linecap="round" stroke-linejoin="miter"></path></svg>