<svg id="visual" viewBox="0 0 900 200" width="900" height="200" xmlns="http://www.w3.org/2000/svg" xmlns:xlink="http://www.w3.org/1999/xlink" version="1.1"><rect x="0" y="0" width="900" height="200" fill="#271810"></rect><path d="M0 127L21.5 115.2C43 103.3 86 79.7 128.8 83.2C171.7 86.7 214.3 117.3 257.2 125.5C300 133.7 343 119.3 385.8 117.7C428.7 116 471.3 127 514.2 127.2C557 127.3 600 116.7 642.8 106.2C685.7 95.7 728.3 85.3 771.2 86.3C814 87.3 857 99.7 878.5 105.8L900 112L900 201L878.5 201C857 201 814 201 771.2 201C728.3 201 685.7 201 642.8 201C600 201 557 201 514.2 201C471.3 201 428.7 201 385.8 201C343 201 300 201 257.2 201C214.3 201 171.7 201 128.8 201C86 201 43 201 21.5 201L0 201Z" fill="#ffffff" stroke-linecap="round" stroke-linejoin="miter"></path></svg>