<svg id="visual" viewBox="0 0 900 100" width="900" height="100" xmlns="http://www.w3.org/2000/svg" xmlns:xlink="http://www.w3.org/1999/xlink" version="1.1"><rect x="0" y="0" width="900" height="100" fill="#111021"></rect><path d="M0 74L21.5 73.3C43 72.7 86 71.3 128.8 72.3C171.7 73.3 214.3 76.7 257.2 78.3C300 80 343 80 385.8 79.3C428.7 78.7 471.3 77.3 514.2 78.3C557 79.3 600 82.7 642.8 81.3C685.7 80 728.3 74 771.2 72.8C814 71.7 857 75.3 878.5 77.2L900 79L900 101L878.5 101C857 101 814 101 771.2 101C728.3 101 685.7 101 642.8 101C600 101 557 101 514.2 101C471.3 101 428.7 101 385.8 101C343 101 300 101 257.2 101C214.3 101 171.7 101 128.8 101C86 101 43 101 21.5 101L0 101Z" fill="#FFFFFF" stroke-linecap="round" stroke-linejoin="miter"></path></svg>