<svg id="visual" viewBox="0 0 900 200" width="900" height="200" xmlns="http://www.w3.org/2000/svg" xmlns:xlink="http://www.w3.org/1999/xlink" version="1.1"><rect x="0" y="0" width="900" height="200" fill="#6E8CA3"></rect><path d="M0 117L12.5 119.8C25 122.7 50 128.3 75 126C100 123.7 125 113.3 150 112.5C175 111.7 200 120.3 225 119C250 117.7 275 106.3 300 105.8C325 105.3 350 115.7 375 125.8C400 136 425 146 450 141.2C475 136.3 500 116.7 525 115.5C550 114.3 575 131.7 600 137.3C625 143 650 137 675 132.8C700 128.7 725 126.3 750 129.5C775 132.7 800 141.3 825 134.5C850 127.7 875 105.3 887.5 94.2L900 83L900 201L887.5 201C875 201 850 201 825 201C800 201 775 201 750 201C725 201 700 201 675 201C650 201 625 201 600 201C575 201 550 201 525 201C500 201 475 201 450 201C425 201 400 201 375 201C350 201 325 201 300 201C275 201 250 201 225 201C200 201 175 201 150 201C125 201 100 201 75 201C50 201 25 201 12.5 201L0 201Z" fill="#ffffff" stroke-linecap="round" stroke-linejoin="miter"></path></svg>