<svg id="visual" viewBox="0 0 900 200" width="900" height="200" xmlns="http://www.w3.org/2000/svg" xmlns:xlink="http://www.w3.org/1999/xlink" version="1.1"><rect x="0" y="0" width="900" height="200" fill="#6E8CA3"></rect><path d="M0 135L13.7 131.7C27.3 128.3 54.7 121.7 82 120C109.3 118.3 136.7 121.7 163.8 115C191 108.3 218 91.7 245.2 82.8C272.3 74 299.7 73 327 82.5C354.3 92 381.7 112 409 112.8C436.3 113.7 463.7 95.3 491 86.2C518.3 77 545.7 77 573 85.8C600.3 94.7 627.7 112.3 654.8 110.8C682 109.3 709 88.7 736.2 84.8C763.3 81 790.7 94 818 105C845.3 116 872.7 125 886.3 129.5L900 134L900 201L886.3 201C872.7 201 845.3 201 818 201C790.7 201 763.3 201 736.2 201C709 201 682 201 654.8 201C627.7 201 600.3 201 573 201C545.7 201 518.3 201 491 201C463.7 201 436.3 201 409 201C381.7 201 354.3 201 327 201C299.7 201 272.3 201 245.2 201C218 201 191 201 163.8 201C136.7 201 109.3 201 82 201C54.7 201 27.3 201 13.7 201L0 201Z" fill="#8d5e36" stroke-linecap="round" stroke-linejoin="miter"></path></svg>