<svg id="visual" viewBox="0 0 900 200" width="900" height="200" xmlns="http://www.w3.org/2000/svg" xmlns:xlink="http://www.w3.org/1999/xlink" version="1.1"><rect x="0" y="0" width="900" height="200" fill="#6E8CA3"></rect><path d="M0 91L13.7 97.8C27.3 104.7 54.7 118.3 82 113.8C109.3 109.3 136.7 86.7 163.8 86.2C191 85.7 218 107.3 245.2 115.7C272.3 124 299.7 119 327 117.7C354.3 116.3 381.7 118.7 409 114.2C436.3 109.7 463.7 98.3 491 98.5C518.3 98.7 545.7 110.3 573 106.7C600.3 103 627.7 84 654.8 77.8C682 71.7 709 78.3 736.2 78.8C763.3 79.3 790.7 73.7 818 74.5C845.3 75.3 872.7 82.7 886.3 86.3L900 90L900 0L886.3 0C872.7 0 845.3 0 818 0C790.7 0 763.3 0 736.2 0C709 0 682 0 654.8 0C627.7 0 600.3 0 573 0C545.7 0 518.3 0 491 0C463.7 0 436.3 0 409 0C381.7 0 354.3 0 327 0C299.7 0 272.3 0 245.2 0C218 0 191 0 163.8 0C136.7 0 109.3 0 82 0C54.7 0 27.3 0 13.7 0L0 0Z" fill="#8d5e36" stroke-linecap="round" stroke-linejoin="miter"></path></svg>