<svg id="visual" viewBox="0 0 900 200" width="900" height="200" xmlns="http://www.w3.org/2000/svg" xmlns:xlink="http://www.w3.org/1999/xlink" version="1.1"><rect x="0" y="0" width="900" height="200" fill="#475B70"></rect><path d="M0 74L21.5 66.7C43 59.3 86 44.7 128.8 36.7C171.7 28.7 214.3 27.3 257.2 33C300 38.7 343 51.3 385.8 58C428.7 64.7 471.3 65.3 514.2 60.2C557 55 600 44 642.8 39.8C685.7 35.7 728.3 38.3 771.2 39.8C814 41.3 857 41.7 878.5 41.8L900 42L900 0L878.5 0C857 0 814 0 771.2 0C728.3 0 685.7 0 642.8 0C600 0 557 0 514.2 0C471.3 0 428.7 0 385.8 0C343 0 300 0 257.2 0C214.3 0 171.7 0 128.8 0C86 0 43 0 21.5 0L0 0Z" fill="#fff" stroke-linecap="round" stroke-linejoin="miter"></path></svg>