<svg id="visual" viewBox="0 0 900 200" width="900" height="200" xmlns="http://www.w3.org/2000/svg" xmlns:xlink="http://www.w3.org/1999/xlink" version="1.1"><rect x="0" y="0" width="900" height="200" fill="#475B70"></rect><path d="M0 131L21.5 131C43 131 86 131 128.8 138C171.7 145 214.3 159 257.2 160.2C300 161.3 343 149.7 385.8 141.7C428.7 133.7 471.3 129.3 514.2 133C557 136.7 600 148.3 642.8 149.3C685.7 150.3 728.3 140.7 771.2 137.8C814 135 857 139 878.5 141L900 143L900 201L878.5 201C857 201 814 201 771.2 201C728.3 201 685.7 201 642.8 201C600 201 557 201 514.2 201C471.3 201 428.7 201 385.8 201C343 201 300 201 257.2 201C214.3 201 171.7 201 128.8 201C86 201 43 201 21.5 201L0 201Z" fill="#fff" stroke-linecap="round" stroke-linejoin="miter"></path></svg>