<svg id="visual" viewBox="0 0 900 100" width="900" height="100" xmlns="http://www.w3.org/2000/svg" xmlns:xlink="http://www.w3.org/1999/xlink" version="1.1"><rect x="0" y="0" width="900" height="100" fill="#111021"></rect><path d="M0 12L21.5 15.7C43 19.3 86 26.7 128.8 28.2C171.7 29.7 214.3 25.3 257.2 25.3C300 25.3 343 29.7 385.8 30.2C428.7 30.7 471.3 27.3 514.2 24.5C557 21.7 600 19.3 642.8 18.8C685.7 18.3 728.3 19.7 771.2 19.5C814 19.3 857 17.7 878.5 16.8L900 16L900 0L878.5 0C857 0 814 0 771.2 0C728.3 0 685.7 0 642.8 0C600 0 557 0 514.2 0C471.3 0 428.7 0 385.8 0C343 0 300 0 257.2 0C214.3 0 171.7 0 128.8 0C86 0 43 0 21.5 0L0 0Z" fill="#FFFFFF" stroke-linecap="round" stroke-linejoin="miter"></path></svg>