<svg id="visual" viewBox="0 0 900 200" width="900" height="200" xmlns="http://www.w3.org/2000/svg" xmlns:xlink="http://www.w3.org/1999/xlink" version="1.1"><rect x="0" y="0" width="900" height="200" fill="#271810"></rect><path d="M0 71L21.5 82.8C43 94.7 86 118.3 128.8 114.8C171.7 111.3 214.3 80.7 257.2 72.5C300 64.3 343 78.7 385.8 80.3C428.7 82 471.3 71 514.2 70.8C557 70.7 600 81.3 642.8 91.8C685.7 102.3 728.3 112.7 771.2 111.7C814 110.7 857 98.3 878.5 92.2L900 86L900 0L878.5 0C857 0 814 0 771.2 0C728.3 0 685.7 0 642.8 0C600 0 557 0 514.2 0C471.3 0 428.7 0 385.8 0C343 0 300 0 257.2 0C214.3 0 171.7 0 128.8 0C86 0 43 0 21.5 0L0 0Z" fill="#ffffff" stroke-linecap="round" stroke-linejoin="miter"></path></svg>