<svg id="visual" viewBox="0 0 900 200" width="900" height="200" xmlns="http://www.w3.org/2000/svg" xmlns:xlink="http://www.w3.org/1999/xlink" version="1.1"><rect x="0" y="0" width="900" height="200" fill="#6E8CA3"></rect><path d="M0 60L12.5 58.7C25 57.3 50 54.7 75 54.2C100 53.7 125 55.3 150 64.2C175 73 200 89 225 99C250 109 275 113 300 106.5C325 100 350 83 375 82.7C400 82.3 425 98.7 450 105.3C475 112 500 109 525 99.5C550 90 575 74 600 72C625 70 650 82 675 87C700 92 725 90 750 93.7C775 97.3 800 106.7 825 102.2C850 97.7 875 79.3 887.5 70.2L900 61L900 0L887.5 0C875 0 850 0 825 0C800 0 775 0 750 0C725 0 700 0 675 0C650 0 625 0 600 0C575 0 550 0 525 0C500 0 475 0 450 0C425 0 400 0 375 0C350 0 325 0 300 0C275 0 250 0 225 0C200 0 175 0 150 0C125 0 100 0 75 0C50 0 25 0 12.5 0L0 0Z" fill="#ffffff" stroke-linecap="round" stroke-linejoin="miter"></path></svg>